<svg xmlns="http://www.w3.org/2000/svg" viewBox="0 0 1100 950" font-family="'Segoe UI', 'Helvetica Neue', Arial, sans-serif">
  <defs>
    <linearGradient id="bg4" x1="0" y1="0" x2="0" y2="1">
      <stop offset="0%" stop-color="#0d1117"/>
      <stop offset="100%" stop-color="#161b22"/>
    </linearGradient>
    <linearGradient id="l7" x1="0" y1="0" x2="1" y2="0">
      <stop offset="0%" stop-color="#bb86fc"/>
      <stop offset="100%" stop-color="#9d4edd"/>
    </linearGradient>
    <linearGradient id="l6" x1="0" y1="0" x2="1" y2="0">
      <stop offset="0%" stop-color="#f0883e"/>
      <stop offset="100%" stop-color="#d35400"/>
    </linearGradient>
    <linearGradient id="l5" x1="0" y1="0" x2="1" y2="0">
      <stop offset="0%" stop-color="#00b4d8"/>
      <stop offset="100%" stop-color="#0077b6"/>
    </linearGradient>
    <linearGradient id="l4" x1="0" y1="0" x2="1" y2="0">
      <stop offset="0%" stop-color="#e94560"/>
      <stop offset="100%" stop-color="#c62a4f"/>
    </linearGradient>
    <linearGradient id="l3" x1="0" y1="0" x2="1" y2="0">
      <stop offset="0%" stop-color="#3fb950"/>
      <stop offset="100%" stop-color="#2da44e"/>
    </linearGradient>
    <linearGradient id="l2" x1="0" y1="0" x2="1" y2="0">
      <stop offset="0%" stop-color="#f9c74f"/>
      <stop offset="100%" stop-color="#f9844a"/>
    </linearGradient>
    <linearGradient id="l1" x1="0" y1="0" x2="1" y2="0">
      <stop offset="0%" stop-color="#58a6ff"/>
      <stop offset="100%" stop-color="#1f6feb"/>
    </linearGradient>
    <filter id="s4">
      <feDropShadow dx="1" dy="2" stdDeviation="3" flood-opacity="0.3"/>
    </filter>
  </defs>

  <rect width="1100" height="950" fill="url(#bg4)"/>

  <text x="550" y="40" text-anchor="middle" fill="#e6edf3" font-size="24" font-weight="700">Technology Stack — 7 Layers</text>
  <text x="550" y="62" text-anchor="middle" fill="#8b949e" font-size="13">Top-down: User-facing → Infrastructure foundation · 28 technologies</text>

  <!-- Layer 7: Dashboard & Testing -->
  <rect x="40" y="85" width="1020" height="110" rx="10" fill="#161b22" stroke="#bb86fc" stroke-width="2" filter="url(#s4)"/>
  <rect x="40" y="85" width="50" height="110" rx="10" fill="url(#l7)"/>
  <rect x="80" y="85" width="10" height="110" fill="url(#l7)"/>
  <text x="65" y="145" text-anchor="middle" fill="white" font-size="16" font-weight="800">L7</text>
  <text x="105" y="108" fill="#bb86fc" font-size="14" font-weight="700">SRE Dashboard &amp; Testing</text>

  <g transform="translate(105, 118)">
    <rect width="120" height="32" rx="6" fill="#21262d" stroke="#61DAFB" stroke-width="1"/>
    <text x="10" y="21" fill="#61DAFB" font-size="11" font-weight="600">React 19</text>
    <text x="75" y="21" fill="#8b949e" font-size="9">SPA</text>
  </g>
  <g transform="translate(235, 118)">
    <rect width="120" height="32" rx="6" fill="#21262d" stroke="#06B6D4" stroke-width="1"/>
    <text x="10" y="21" fill="#06B6D4" font-size="11" font-weight="600">Tailwind 4</text>
    <text x="88" y="21" fill="#8b949e" font-size="9">UI</text>
  </g>
  <g transform="translate(365, 118)">
    <rect width="120" height="32" rx="6" fill="#21262d" stroke="#22B5BF" stroke-width="1"/>
    <text x="10" y="21" fill="#22B5BF" font-size="11" font-weight="600">Recharts 3</text>
    <text x="88" y="21" fill="#8b949e" font-size="9">Charts</text>
  </g>
  <g transform="translate(495, 118)">
    <rect width="130" height="32" rx="6" fill="#21262d" stroke="#e6edf3" stroke-width="1"/>
    <text x="10" y="21" fill="#e6edf3" font-size="11" font-weight="600">Express 5</text>
    <text x="82" y="21" fill="#8b949e" font-size="9">REST API</text>
  </g>
  <g transform="translate(635, 118)">
    <rect width="100" height="32" rx="6" fill="#21262d" stroke="#e6edf3" stroke-width="1"/>
    <text x="10" y="21" fill="#e6edf3" font-size="11" font-weight="600">ssh2</text>
    <text x="42" y="21" fill="#8b949e" font-size="9">SSH Pool</text>
  </g>
  <g transform="translate(745, 118)">
    <rect width="80" height="32" rx="6" fill="#21262d" stroke="#7D64FF" stroke-width="1"/>
    <text x="10" y="21" fill="#7D64FF" font-size="11" font-weight="600">k6</text>
    <text x="30" y="21" fill="#8b949e" font-size="9">Load</text>
  </g>
  <g transform="translate(835, 118)">
    <rect width="110" height="32" rx="6" fill="#21262d" stroke="#CC0000" stroke-width="1"/>
    <text x="10" y="21" fill="#CC0000" font-size="11" font-weight="600">stress-ng</text>
    <text x="80" y="21" fill="#8b949e" font-size="9">CPU</text>
  </g>

  <text x="105" y="180" fill="#8b949e" font-size="10">6 Pages · 11 REST APIs · SSH connection pool to 10 VMs · k6 HTTP load + stress-ng CPU/memory</text>

  <!-- Layer 6: Service Mesh -->
  <rect x="40" y="205" width="1020" height="95" rx="10" fill="#161b22" stroke="#f0883e" stroke-width="2" filter="url(#s4)"/>
  <rect x="40" y="205" width="50" height="95" rx="10" fill="url(#l6)"/>
  <rect x="80" y="205" width="10" height="95" fill="url(#l6)"/>
  <text x="65" y="258" text-anchor="middle" fill="white" font-size="16" font-weight="800">L6</text>
  <text x="105" y="228" fill="#f0883e" font-size="14" font-weight="700">Service Mesh</text>

  <g transform="translate(105, 238)">
    <rect width="180" height="32" rx="6" fill="#21262d" stroke="#466BB0" stroke-width="1"/>
    <text x="10" y="21" fill="#466BB0" font-size="11" font-weight="600">Istio</text>
    <text x="45" y="21" fill="#8b949e" font-size="9">mTLS · Canary · Circuit Breaker</text>
  </g>
  <g transform="translate(300, 238)">
    <rect width="160" height="32" rx="6" fill="#21262d" stroke="#e6edf3" stroke-width="1"/>
    <text x="10" y="21" fill="#e6edf3" font-size="11" font-weight="600">VirtualService</text>
    <text x="110" y="21" fill="#8b949e" font-size="9">80/20</text>
  </g>
  <g transform="translate(475, 238)">
    <rect width="180" height="32" rx="6" fill="#21262d" stroke="#e6edf3" stroke-width="1"/>
    <text x="10" y="21" fill="#e6edf3" font-size="11" font-weight="600">DestinationRule</text>
    <text x="120" y="21" fill="#8b949e" font-size="9">5xx eject</text>
  </g>
  <g transform="translate(670, 238)">
    <rect width="200" height="32" rx="6" fill="#21262d" stroke="#e6edf3" stroke-width="1"/>
    <text x="10" y="21" fill="#e6edf3" font-size="11" font-weight="600">PeerAuthentication</text>
    <text x="145" y="21" fill="#8b949e" font-size="9">STRICT</text>
  </g>

  <text x="105" y="290" fill="#8b949e" font-size="10">Deployed on dev cluster · Envoy sidecar injection · traffic splitting + circuit breaking + mutual TLS</text>

  <!-- Layer 5: Observability -->
  <rect x="40" y="310" width="1020" height="95" rx="10" fill="#161b22" stroke="#00b4d8" stroke-width="2" filter="url(#s4)"/>
  <rect x="40" y="310" width="50" height="95" rx="10" fill="url(#l5)"/>
  <rect x="80" y="310" width="10" height="95" fill="url(#l5)"/>
  <text x="65" y="363" text-anchor="middle" fill="white" font-size="16" font-weight="800">L5</text>
  <text x="105" y="333" fill="#00b4d8" font-size="14" font-weight="700">Observability &amp; Alerting</text>

  <g transform="translate(105, 343)">
    <rect width="130" height="32" rx="6" fill="#21262d" stroke="#E6522C" stroke-width="1"/>
    <text x="10" y="21" fill="#E6522C" font-size="11" font-weight="600">Prometheus</text>
    <text x="88" y="21" fill="#8b949e" font-size="9">Metrics</text>
  </g>
  <g transform="translate(245, 343)">
    <rect width="110" height="32" rx="6" fill="#21262d" stroke="#F46800" stroke-width="1"/>
    <text x="10" y="21" fill="#F46800" font-size="11" font-weight="600">Grafana</text>
    <text x="68" y="21" fill="#8b949e" font-size="9">Viz</text>
  </g>
  <g transform="translate(365, 343)">
    <rect width="90" height="32" rx="6" fill="#21262d" stroke="#F9C74F" stroke-width="1"/>
    <text x="10" y="21" fill="#F9C74F" font-size="11" font-weight="600">Loki</text>
    <text x="42" y="21" fill="#8b949e" font-size="9">Logs</text>
  </g>
  <g transform="translate(465, 343)">
    <rect width="140" height="32" rx="6" fill="#21262d" stroke="#E94560" stroke-width="1"/>
    <text x="10" y="21" fill="#E94560" font-size="11" font-weight="600">AlertManager</text>
    <text x="100" y="21" fill="#8b949e" font-size="9">8 rules</text>
  </g>
  <g transform="translate(615, 343)">
    <rect width="130" height="32" rx="6" fill="#21262d" stroke="#50C878" stroke-width="1"/>
    <text x="10" y="21" fill="#50C878" font-size="11" font-weight="600">Hubble</text>
    <text x="62" y="21" fill="#8b949e" font-size="9">Network</text>
  </g>

  <text x="105" y="395" fill="#8b949e" font-size="10">Prometheus + Grafana + Loki + AlertManager on platform · Hubble on all clusters for network flow visibility</text>

  <!-- Layer 4: CI/CD & GitOps -->
  <rect x="40" y="415" width="1020" height="95" rx="10" fill="#161b22" stroke="#e94560" stroke-width="2" filter="url(#s4)"/>
  <rect x="40" y="415" width="50" height="95" rx="10" fill="url(#l4)"/>
  <rect x="80" y="415" width="10" height="95" fill="url(#l4)"/>
  <text x="65" y="468" text-anchor="middle" fill="white" font-size="16" font-weight="800">L4</text>
  <text x="105" y="438" fill="#e94560" font-size="14" font-weight="700">CI/CD &amp; GitOps</text>

  <g transform="translate(105, 448)">
    <rect width="130" height="32" rx="6" fill="#21262d" stroke="#D24939" stroke-width="1"/>
    <text x="10" y="21" fill="#D24939" font-size="11" font-weight="600">Jenkins</text>
    <text x="65" y="21" fill="#8b949e" font-size="9">CI Pipeline</text>
  </g>
  <g transform="translate(245, 448)">
    <rect width="140" height="32" rx="6" fill="#21262d" stroke="#EF7B4D" stroke-width="1"/>
    <text x="10" y="21" fill="#EF7B4D" font-size="11" font-weight="600">ArgoCD</text>
    <text x="65" y="21" fill="#8b949e" font-size="9">GitOps CD</text>
  </g>

  <text x="105" y="500" fill="#8b949e" font-size="10">Jenkins for CI builds · ArgoCD for declarative GitOps continuous delivery · both on platform cluster</text>

  <!-- Layer 3: Network & Security -->
  <rect x="40" y="520" width="1020" height="95" rx="10" fill="#161b22" stroke="#3fb950" stroke-width="2" filter="url(#s4)"/>
  <rect x="40" y="520" width="50" height="95" rx="10" fill="url(#l3)"/>
  <rect x="80" y="520" width="10" height="95" fill="url(#l3)"/>
  <text x="65" y="573" text-anchor="middle" fill="white" font-size="16" font-weight="800">L3</text>
  <text x="105" y="543" fill="#3fb950" font-size="14" font-weight="700">Network &amp; Security</text>

  <g transform="translate(105, 553)">
    <rect width="130" height="32" rx="6" fill="#21262d" stroke="#8B5CF6" stroke-width="1"/>
    <text x="10" y="21" fill="#8B5CF6" font-size="11" font-weight="600">Cilium</text>
    <text x="55" y="21" fill="#8b949e" font-size="9">eBPF CNI</text>
  </g>
  <g transform="translate(245, 553)">
    <rect width="200" height="32" rx="6" fill="#21262d" stroke="#8B5CF6" stroke-width="1"/>
    <text x="10" y="21" fill="#8B5CF6" font-size="11" font-weight="600">CiliumNetworkPolicy</text>
    <text x="160" y="21" fill="#8b949e" font-size="9">L7</text>
  </g>
  <g transform="translate(455, 553)">
    <rect width="150" height="32" rx="6" fill="#21262d" stroke="#e6edf3" stroke-width="1"/>
    <text x="10" y="21" fill="#e6edf3" font-size="11" font-weight="600">metrics-server</text>
    <text x="107" y="21" fill="#8b949e" font-size="9">HPA</text>
  </g>
  <g transform="translate(615, 553)">
    <rect width="70" height="32" rx="6" fill="#21262d" stroke="#e6edf3" stroke-width="1"/>
    <text x="10" y="21" fill="#e6edf3" font-size="11" font-weight="600">HPA</text>
  </g>
  <g transform="translate(695, 553)">
    <rect width="70" height="32" rx="6" fill="#21262d" stroke="#e6edf3" stroke-width="1"/>
    <text x="10" y="21" fill="#e6edf3" font-size="11" font-weight="600">PDB</text>
  </g>

  <text x="105" y="605" fill="#8b949e" font-size="10">Cilium eBPF replaces kube-proxy · Zero-Trust L3/L4/L7 policies · HPA autoscaling 3→10 pods · PDB for availability</text>

  <!-- Layer 2: Kubernetes -->
  <rect x="40" y="625" width="1020" height="95" rx="10" fill="#161b22" stroke="#f9c74f" stroke-width="2" filter="url(#s4)"/>
  <rect x="40" y="625" width="50" height="95" rx="10" fill="url(#l2)"/>
  <rect x="80" y="625" width="10" height="95" fill="url(#l2)"/>
  <text x="65" y="678" text-anchor="middle" fill="white" font-size="16" font-weight="800">L2</text>
  <text x="105" y="648" fill="#f9c74f" font-size="14" font-weight="700">Container Orchestration</text>

  <g transform="translate(105, 658)">
    <rect width="140" height="32" rx="6" fill="#21262d" stroke="#326CE5" stroke-width="1"/>
    <text x="10" y="21" fill="#326CE5" font-size="11" font-weight="600">Kubernetes</text>
    <text x="88" y="21" fill="#8b949e" font-size="9">v1.31</text>
  </g>
  <g transform="translate(255, 658)">
    <rect width="110" height="32" rx="6" fill="#21262d" stroke="#326CE5" stroke-width="1"/>
    <text x="10" y="21" fill="#326CE5" font-size="11" font-weight="600">kubeadm</text>
    <text x="75" y="21" fill="#8b949e" font-size="9">init</text>
  </g>
  <g transform="translate(375, 658)">
    <rect width="120" height="32" rx="6" fill="#21262d" stroke="#575757" stroke-width="1"/>
    <text x="10" y="21" fill="#e6edf3" font-size="11" font-weight="600">containerd</text>
    <text x="85" y="21" fill="#8b949e" font-size="9">CRI</text>
  </g>
  <g transform="translate(505, 658)">
    <rect width="90" height="32" rx="6" fill="#21262d" stroke="#326CE5" stroke-width="1"/>
    <text x="10" y="21" fill="#326CE5" font-size="11" font-weight="600">Helm</text>
    <text x="45" y="21" fill="#8b949e" font-size="9">Charts</text>
  </g>

  <text x="105" y="710" fill="#8b949e" font-size="10">4 clusters (platform/dev/staging/prod) · kubeadm bootstrap · containerd runtime · Helm declarative installs</text>

  <!-- Layer 1: Infrastructure -->
  <rect x="40" y="730" width="1020" height="95" rx="10" fill="#161b22" stroke="#58a6ff" stroke-width="2" filter="url(#s4)"/>
  <rect x="40" y="730" width="50" height="95" rx="10" fill="url(#l1)"/>
  <rect x="80" y="730" width="10" height="95" fill="url(#l1)"/>
  <text x="65" y="783" text-anchor="middle" fill="white" font-size="16" font-weight="800">L1</text>
  <text x="105" y="753" fill="#58a6ff" font-size="14" font-weight="700">Infrastructure &amp; Virtualization</text>

  <g transform="translate(105, 763)">
    <rect width="80" height="32" rx="6" fill="#21262d" stroke="#e6edf3" stroke-width="1"/>
    <text x="10" y="21" fill="#e6edf3" font-size="11" font-weight="600">Tart</text>
    <text x="40" y="21" fill="#8b949e" font-size="9">VMs</text>
  </g>
  <g transform="translate(195, 763)">
    <rect width="110" height="32" rx="6" fill="#21262d" stroke="#844FBA" stroke-width="1"/>
    <text x="10" y="21" fill="#844FBA" font-size="11" font-weight="600">Terraform</text>
    <text x="80" y="21" fill="#8b949e" font-size="9">IaC</text>
  </g>
  <g transform="translate(315, 763)">
    <rect width="100" height="32" rx="6" fill="#21262d" stroke="#4EAA25" stroke-width="1"/>
    <text x="10" y="21" fill="#4EAA25" font-size="11" font-weight="600">Bash</text>
    <text x="48" y="21" fill="#8b949e" font-size="9">Scripts</text>
  </g>
  <g transform="translate(425, 763)">
    <rect width="130" height="32" rx="6" fill="#21262d" stroke="#e6edf3" stroke-width="1"/>
    <text x="10" y="21" fill="#e6edf3" font-size="11" font-weight="600">Hypervisor.fw</text>
    <text x="102" y="21" fill="#8b949e" font-size="9">Apple</text>
  </g>
  <g transform="translate(565, 763)">
    <rect width="120" height="32" rx="6" fill="#21262d" stroke="#e6edf3" stroke-width="1"/>
    <text x="10" y="21" fill="#e6edf3" font-size="11" font-weight="600">Apple Silicon</text>
    <text x="95" y="21" fill="#8b949e" font-size="9">M4</text>
  </g>

  <text x="105" y="815" fill="#8b949e" font-size="10">Tart ARM64 VMs on Apple Hypervisor.framework · Terraform + Bash for IaC · 10 VMs / 21 vCPU / 71.5 GB</text>

  <!-- Demo Apps layer -->
  <rect x="40" y="840" width="1020" height="95" rx="10" fill="#161b22" stroke="#c9d1d9" stroke-width="1.5" stroke-dasharray="5,3"/>
  <text x="105" y="863" fill="#c9d1d9" font-size="14" font-weight="700">Demo Applications (dev cluster)</text>
  <g transform="translate(105, 873)">
    <rect width="80" height="28" rx="5" fill="#21262d" stroke="#3fb950" stroke-width="1"/>
    <text x="10" y="19" fill="#3fb950" font-size="10" font-weight="600">nginx</text>
  </g>
  <g transform="translate(195, 873)">
    <rect width="110" height="28" rx="5" fill="#21262d" stroke="#f0883e" stroke-width="1"/>
    <text x="10" y="19" fill="#f0883e" font-size="10" font-weight="600">httpbin v1/v2</text>
  </g>
  <g transform="translate(315, 873)">
    <rect width="70" height="28" rx="5" fill="#21262d" stroke="#e94560" stroke-width="1"/>
    <text x="10" y="19" fill="#e94560" font-size="10" font-weight="600">Redis</text>
  </g>
  <g transform="translate(395, 873)">
    <rect width="100" height="28" rx="5" fill="#21262d" stroke="#336791" stroke-width="1"/>
    <text x="10" y="19" fill="#336791" font-size="10" font-weight="600">PostgreSQL</text>
  </g>
  <g transform="translate(505, 873)">
    <rect width="100" height="28" rx="5" fill="#21262d" stroke="#FF6600" stroke-width="1"/>
    <text x="10" y="19" fill="#FF6600" font-size="10" font-weight="600">RabbitMQ</text>
  </g>
  <g transform="translate(615, 873)">
    <rect width="100" height="28" rx="5" fill="#21262d" stroke="#00B8E3" stroke-width="1"/>
    <text x="10" y="19" fill="#00B8E3" font-size="10" font-weight="600">Keycloak</text>
  </g>
  <text x="105" y="925" fill="#8b949e" font-size="10">Microservice demo: frontend (nginx) → API (httpbin) → DB (postgres) + cache (redis) + MQ (rabbitmq) + auth (keycloak)</text>
</svg>